# xmcd
#
# Track frame offsets: 
#        150
#        31770
#        53106
#        76427
#        99169
#        117225
#        148047
#        182606
#        203456
#        214684
#
# Disc length: 3244 seconds
#
# Revision: 1
# Processed by: cddbd v1.5.2PL0 Copyright (c) Steve Scherf et al.
# Submitted via: ExactAudioCopyFreeDBPlugin 1.0
#
DISCID=7b0caa0a
DTITLE=The Jimmys - Live From Transylvania
DYEAR=2016
DGENRE=Blues
TTITLE0=Jacqui Juice
TTITLE1=I Wonder
TTITLE2=You Cant Hurt Me Anymore
TTITLE3=Hell Or Heaven
TTITLE4=Love Will Find A Way
TTITLE5=Cold Women
TTITLE6=Lonesome Whistle Blues
TTITLE7=You Say You Will
TTITLE8=Lose That Woman
TTITLE9=Ophelia
EXTD=
EXTT0=
EXTT1=
EXTT2=
EXTT3=
EXTT4=
EXTT5=
EXTT6=
EXTT7=
EXTT8=
EXTT9=
PLAYORDER=
